<?xml version="1.0" standalone="no"?>
<!DOCTYPE svg PUBLIC "-//W3C//DTD SVG 20010904//EN"
 "http://www.w3.org/TR/2001/REC-SVG-20010904/DTD/svg10.dtd">
<svg version="1.0" xmlns="http://www.w3.org/2000/svg"
 width="278.000000pt" height="278.000000pt" viewBox="0 0 278.000000 278.000000"
 preserveAspectRatio="xMidYMid meet">
<metadata>
Created by potrace 1.14, written by Peter Selinger 2001-2017
</metadata>
<g transform="translate(0.000000,278.000000) scale(0.100000,-0.100000)"
fill="#000000" stroke="none">
<path d="M576 2749 c-166 -18 -274 -67 -382 -174 -51 -51 -81 -92 -107 -145
-71 -144 -70 -128 -74 -980 -5 -817 -1 -902 42 -1037 49 -156 181 -297 333
-356 116 -46 172 -49 890 -54 884 -6 1000 2 1162 80 87 42 203 158 247 247 78
157 86 270 80 1155 -4 590 -7 702 -21 775 -48 244 -216 420 -456 476 -68 16
-152 18 -855 20 -429 1 -815 -2 -859 -7z m529 -414 c214 -54 387 -226 441
-436 24 -92 21 -236 -6 -324 -65 -212 -245 -375 -462 -419 -97 -20 -139 -20
-236 0 -126 25 -214 74 -307 168 -123 124 -178 256 -178 426 1 274 187 515
453 584 73 19 221 20 295 1z m1131 -9 c138 -64 166 -236 56 -349 -132 -136
-366 -37 -365 154 2 164 161 264 309 195z"/>
<path d="M837 2225 c-127 -35 -250 -131 -309 -241 -99 -183 -69 -416 70 -567
100 -107 215 -157 362 -157 151 0 260 48 363 160 211 227 153 596 -118 756
-101 59 -257 80 -368 49z m184 -734 c54 -54 25 -135 -53 -148 -32 -5 -41 -1
-68 25 -40 41 -41 83 -1 123 20 20 39 29 61 29 22 0 41 -9 61 -29z"/>
</g>
</svg>
