<?xml version="1.0" encoding="UTF-8"?>
<svg id="Layer_2" data-name="Layer 2" xmlns="http://www.w3.org/2000/svg" viewBox="0 0 20.88 20.86">
  <defs>
    <style>
      .cls-1 {
        fill: #d1263a;
      }

      .cls-2 {
        fill: #3bc5ea;
      }

      .cls-3 {
        fill: #5fe1ff;
      }
    </style>
  </defs>
  <g id="Layer_1-2">
    <g>
      <path class="cls-1" d="m4.28.05c-1.26.14-2.07.51-2.89,1.32-.39.39-.61.7-.81,1.1C.04,3.56.04,3.44.01,9.89c-.04,6.19,0,6.83.32,7.85.37,1.18,1.37,2.25,2.52,2.7.88.35,1.3.37,6.74.41,6.69.05,7.57-.02,8.8-.61.66-.32,1.54-1.2,1.87-1.87.59-1.19.65-2.04.61-8.75-.03-4.47-.05-5.32-.16-5.87-.36-1.85-1.64-3.18-3.45-3.6C16.74.03,16.1.02,10.78,0c-3.25,0-6.17.02-6.5.05Zm4.01,3.13c1.62.41,2.93,1.71,3.34,3.3.18.7.16,1.79-.05,2.45-.49,1.61-1.86,2.84-3.5,3.17-.73.15-1.05.15-1.79,0-.95-.19-1.62-.56-2.32-1.27-.93-.94-1.35-1.94-1.35-3.23,0-2.07,1.42-3.9,3.43-4.42.55-.14,1.67-.15,2.23,0Zm8.56.07c1.04.48,1.26,1.79.42,2.64-1,1.03-2.77.28-2.76-1.17.02-1.24,1.22-2,2.34-1.48Z"/>
      <path class="cls-2" d="m6.25,4.02c-.96.27-1.89.99-2.34,1.82-.75,1.39-.52,3.15.53,4.29.76.81,1.63,1.19,2.74,1.19s1.97-.36,2.75-1.21c1.6-1.72,1.16-4.51-.89-5.72-.76-.45-1.95-.61-2.79-.37Zm-1.9,4.57c.17-.55.82-.63,1.17-.15.14.2.15.27.07.54-.14.41-.41.56-.82.42-.2-.07-.33-.16-.4-.31s-.08-.31-.02-.51Z"/>
    </g>
    <path class="cls-3" d="m7.08,5.94c1.05,1,1.79.97,2.05,1.7.15.43,0,.72.23.87.27.17.83-.04,1.07-.4.44-.66-.15-1.86-.81-2.51-.7-.69-1.52-.81-1.88-.87-.15-.02-1.2-.18-1.36.17-.12.27.35.71.69,1.04Z"/>
  </g>
</svg>